{
	"asset":{
		"generator":"Khronos glTF Blender I/O v3.6.27",
		"version":"2.0"
	},
	"scene":0,
	"scenes":[
		{
			"name":"Scene",
			"nodes":[
				0,
				1,
				2
			]
		}
	],
	"nodes":[
		{
			"mesh":0,
			"name":"BaseLand",
			"translation":[
				0,
				-0.1829044073820114,
				0
			]
		},
		{
			"mesh":1,
			"name":"Building1",
			"rotation":[
				0,
				0.10818666219711304,
				0,
				0.9941306114196777
			],
			"translation":[
				1.5,
				0.8261263966560364,
				2.299999952316284
			]
		},
		{
			"mesh":2,
			"name":"Building2",
			"translation":[
				-14.121733665466309,
				0.31533899903297424,
				-2.4598894119262695
			]
		}
	],
	"materials":[
		{
			"doubleSided":true,
			"name":"BasicGrass",
			"pbrMetallicRoughness":{
				"baseColorFactor":[
					0.15012648701667786,
					0.8000000715255737,
					0.363007128238678,
					1
				],
				"metallicFactor":0,
				"roughnessFactor":0.5
			}
		},
		{
			"doubleSided":true,
			"name":"BasicBody",
			"pbrMetallicRoughness":{
				"baseColorFactor":[
					0.08107633888721466,
					0.035293854773044586,
					0.8000000715255737,
					1
				],
				"metallicFactor":0,
				"roughnessFactor":0.5
			}
		}
	],
	"meshes":[
		{
			"name":"Cube.037",
			"primitives":[
				{
					"attributes":{
						"POSITION":0,
						"NORMAL":1,
						"TEXCOORD_0":2
					},
					"indices":3,
					"material":0
				}
			]
		},
		{
			"name":"Cube",
			"primitives":[
				{
					"attributes":{
						"POSITION":4,
						"NORMAL":5,
						"TEXCOORD_0":6
					},
					"indices":7,
					"material":1
				}
			]
		},
		{
			"name":"Cube.097",
			"primitives":[
				{
					"attributes":{
						"POSITION":8,
						"NORMAL":9,
						"TEXCOORD_0":10
					},
					"indices":11,
					"material":1
				}
			]
		}
	],
	"accessors":[
		{
			"bufferView":0,
			"componentType":5126,
			"count":257,
			"max":[
				15.908224105834961,
				0.10000000149011612,
				9.341683387756348
			],
			"min":[
				-16.672897338867188,
				-0.30000001192092896,
				-11.789083480834961
			],
			"type":"VEC3"
		},
		{
			"bufferView":1,
			"componentType":5126,
			"count":257,
			"type":"VEC3"
		},
		{
			"bufferView":2,
			"componentType":5126,
			"count":257,
			"type":"VEC2"
		},
		{
			"bufferView":3,
			"componentType":5123,
			"count":741,
			"type":"SCALAR"
		},
		{
			"bufferView":4,
			"componentType":5126,
			"count":108,
			"max":[
				2.5,
				0.086223304271698,
				1
			],
			"min":[
				-2.5,
				-1,
				-1
			],
			"type":"VEC3"
		},
		{
			"bufferView":5,
			"componentType":5126,
			"count":108,
			"type":"VEC3"
		},
		{
			"bufferView":6,
			"componentType":5126,
			"count":108,
			"type":"VEC2"
		},
		{
			"bufferView":7,
			"componentType":5123,
			"count":228,
			"type":"SCALAR"
		},
		{
			"bufferView":8,
			"componentType":5126,
			"count":72,
			"max":[
				15.416955947875977,
				0.5970107316970825,
				4.849459648132324
			],
			"min":[
				-0.4118080139160156,
				-0.5247345566749573,
				-4.730476379394531
			],
			"type":"VEC3"
		},
		{
			"bufferView":9,
			"componentType":5126,
			"count":72,
			"type":"VEC3"
		},
		{
			"bufferView":10,
			"componentType":5126,
			"count":72,
			"type":"VEC2"
		},
		{
			"bufferView":11,
			"componentType":5123,
			"count":108,
			"type":"SCALAR"
		}
	],
	"bufferViews":[
		{
			"buffer":0,
			"byteLength":3084,
			"byteOffset":0,
			"target":34962
		},
		{
			"buffer":0,
			"byteLength":3084,
			"byteOffset":3084,
			"target":34962
		},
		{
			"buffer":0,
			"byteLength":2056,
			"byteOffset":6168,
			"target":34962
		},
		{
			"buffer":0,
			"byteLength":1482,
			"byteOffset":8224,
			"target":34963
		},
		{
			"buffer":0,
			"byteLength":1296,
			"byteOffset":9708,
			"target":34962
		},
		{
			"buffer":0,
			"byteLength":1296,
			"byteOffset":11004,
			"target":34962
		},
		{
			"buffer":0,
			"byteLength":864,
			"byteOffset":12300,
			"target":34962
		},
		{
			"buffer":0,
			"byteLength":456,
			"byteOffset":13164,
			"target":34963
		},
		{
			"buffer":0,
			"byteLength":864,
			"byteOffset":13620,
			"target":34962
		},
		{
			"buffer":0,
			"byteLength":864,
			"byteOffset":14484,
			"target":34962
		},
		{
			"buffer":0,
			"byteLength":576,
			"byteOffset":15348,
			"target":34962
		},
		{
			"buffer":0,
			"byteLength":216,
			"byteOffset":15924,
			"target":34963
		}
	],
	"buffers":[
		{
			"byteLength":16140,
			"uri":"minimizedModel.bin"
		}
	]
}
